<svg xmlns="http://www.w3.org/2000/svg" viewBox="0 0 48 48" id="crm"><rect width="4" height="8" x="34" y="39" fill="#bfbfbf"></rect><rect width="4" height="14" x="42" y="33" fill="#bfbfbf"></rect><path fill="#bfbfbf" d="M18 37v7a1 1 0 0 1-1 1H16v2l-3-2H7a1 1 0 0 1-1-1V41h6a1 1 0 0 0 1-1V36h4A1 1 0 0 1 18 37zM47 10.09V7.91l-1.7-.68a7.17 7.17 0 0 0-.59-1.43l.72-1.69L43.89 2.57l-1.69.72a7.17 7.17 0 0 0-1.43-.59L40.09 1H37.91l-.68 1.7a7.17 7.17 0 0 0-1.43.59l-1.69-.72L32.57 4.11l.72 1.69a7.17 7.17 0 0 0-.59 1.43L31 7.91v2.18l1.7.68a7.17 7.17 0 0 0 .59 1.43l-.72 1.69 1.54 1.54 1.69-.72a7.17 7.17 0 0 0 1.43.59l.68 1.7h2.18l.68-1.7a7.17 7.17 0 0 0 1.43-.59l1.69.72 1.54-1.54-.72-1.69a7.17 7.17 0 0 0 .59-1.43zM39 11a2 2 0 1 1 2-2A2 2 0 0 1 39 11z"></path><path fill="#fc6459" d="M34.2 19.4L32 22.33 29.8 19.4A1 1 0 0 0 28 20v8a1 1 0 0 0 2 0V23l1.2 1.6a1 1 0 0 0 1.6 0L34 23v5a1 1 0 0 0 2 0V20A1 1 0 0 0 34.2 19.4zM23 19H21a1 1 0 0 0-1 1v8a1 1 0 0 0 2 0V25h1a1 1 0 0 1 1 1v2a1 1 0 0 0 2 0c0-1.91.19-2.93-.78-4A3 3 0 0 0 23 19zm-1 4V21h1a1 1 0 0 1 0 2zM16.7 26.4a1.5 1.5 0 0 1-2.7-.9v-3A1.5 1.5 0 0 1 15.5 21a1.48 1.48 0 0 1 1.18.57 1 1 0 0 0 1.64-1.14A3.45 3.45 0 0 0 15.5 19 3.5 3.5 0 0 0 12 22.5v3a3.5 3.5 0 0 0 6.3 2.1 1 1 0 0 0-1.6-1.2z"></path><path fill="#424242" d="M47 46V33a1 1 0 0 0-1-1H42a1 1 0 0 0-1 1v3H38a1 1 0 0 0-1 1v1H34a1 1 0 0 0-1 1v1H30a1 1 0 0 0-1 1v5a1 1 0 0 0 0 2H47a1 1 0 0 0 0-2zM33 46H31V42h2zm4 0H35V40h2zm4 0H39V38h2zm4 0H43V34h2zM17 35H14V33a2 2 0 0 0-2-2H2a2 2 0 0 0-2 2v7a2 2 0 0 0 2 2v1a1 1 0 0 0 1 1c.38 0 .44-.09 2-1.13V44a2 2 0 0 0 2 2h5.7l2.75 1.83A1 1 0 0 0 17 47V46a2 2 0 0 0 2-2V37A2 2 0 0 0 17 35zM6 40c-.41 0-.67.25-2 1.13A1 1 0 0 0 3 40H2V33H12v7zm11 4H16a1 1 0 0 0-1 1v.13l-1.45-1C13.2 43.93 13.44 44 7 44V42h5a2 2 0 0 0 2-2V37h3zM30 38a1 1 0 0 0 .71-.29L34 34.41V35a1 1 0 0 0 2 0V32a1 1 0 0 0-.62-.92C35.12 31 35.27 31 32 31a1 1 0 0 0 0 2h.59l-3.3 3.29A1 1 0 0 0 30 38zM9 18a9 9 0 1 1 9-9A9 9 0 0 1 9 18zM9 2a7 7 0 1 0 7 7A7 7 0 0 0 9 2z"></path><path fill="#bfbfbf" d="M9,4a5,5,0,1,0,5,5A5,5,0,0,0,9,4Zm0,7a2,2,0,1,1,2-2A2,2,0,0,1,9,11Z"></path><path fill="#424242" d="M47.37,7l-1.26-.5a7.76,7.76,0,0,0-.3-.72l.54-1.25a1,1,0,0,0-.21-1.1L44.59,1.86a1,1,0,0,0-1.1-.21l-1.25.54a7.76,7.76,0,0,0-.72-.3L41,.63A1,1,0,0,0,40.09,0H37.91A1,1,0,0,0,37,.63l-.5,1.26a7.76,7.76,0,0,0-.72.3l-1.25-.54a1,1,0,0,0-1.1.21L31.86,3.41a1,1,0,0,0-.21,1.1l.54,1.25a7.76,7.76,0,0,0-.3.72L30.63,7a1,1,0,0,0-.63.93v2.18a1,1,0,0,0,.63.93l1.26.5a7.76,7.76,0,0,0,.3.72l-.54,1.25a1,1,0,0,0,.21,1.1l1.55,1.55a1,1,0,0,0,1.1.21l1.25-.54a7.76,7.76,0,0,0,.72.3l.5,1.26a1,1,0,0,0,.93.63h2.18a1,1,0,0,0,.93-.63l.5-1.26a7.76,7.76,0,0,0,.72-.3l1.25.54a1,1,0,0,0,1.1-.21l1.55-1.55a1,1,0,0,0,.21-1.1l-.54-1.25a7.76,7.76,0,0,0,.3-.72l1.26-.5a1,1,0,0,0,.63-.93V7.91A1,1,0,0,0,47.37,7ZM46,9.41l-1.07.43a1,1,0,0,0-.59.66c-.36,1.25-.84,1.41-.55,2.09l.45,1.07-.58.58c-1.17-.5-1.43-.7-1.95-.4-1.07.6-1.59.39-1.87,1.09L39.41,16h-.82l-.43-1.07a1,1,0,0,0-.66-.6c-1.26-.35-1.41-.83-2.09-.54l-1.07.45-.58-.58c.5-1.17.7-1.43.4-1.95-.6-1.07-.39-1.59-1.09-1.87L32,9.41V8.59l1.07-.43a1,1,0,0,0,.59-.66c.36-1.25.84-1.41.55-2.09l-.45-1.07.58-.58c1.17.5,1.43.69,1.95.4,1.07-.6,1.59-.39,1.87-1.09L38.59,2h.82l.43,1.07a1,1,0,0,0,.66.59c1.26.36,1.41.84,2.09.55l1.07-.45.58.58c-.5,1.17-.7,1.43-.4,2,.6,1.07.39,1.59,1.09,1.87L46,8.59Z"></path><path fill="#424242" d="M39 6a3 3 0 1 0 3 3A3 3 0 0 0 39 6zm0 4a1 1 0 1 1 1-1A1 1 0 0 1 39 10zM9 10.06A1 1 0 0 1 8.46 8.2l12.19-7a1 1 0 1 1 1 1.73C8.47 10.5 9.35 10.06 9 10.06z"></path><polygon fill="#bfbfbf" points="22.13 3.73 19.53 5.23 17.69 4.03 17.53 1.76 20.13 .26 20.26 2.5 22.13 3.73"></polygon></svg>